<svg xmlns="http://www.w3.org/2000/svg" width="32" height="32" viewBox="0 0 32 32">
  <rect width="32" height="32" fill="transparent"/>
  <path d="M13.5,3.5 C14.9,3.5 16,4.6 16,6 C16,7.4 14.9,8.5 13.5,8.5 C12.1,8.5 11,7.4 11,6 C11,4.6 12.1,3.5 13.5,3.5 Z" fill="#d9272e"/>
  <path d="M8,10 L13,9 L13,14 L17,14 L17,9 L19,10 C19.5,10.2 19.7,10.8 19.5,11.3 L17,15.5 L14,15.5 L14,22 L15,23 C15.4,23.4 15.4,24 15,24.4 L15,28 L12,28 L12,24.4 C11.6,24 11.6,23.4 12,23 L13,22 L13,15.5 L10,15.5 L7.5,11.3 C7.3,10.8 7.5,10.2 8,10 Z" fill="#d9272e"/>
  <path d="M3,28 L7,28 L7,13.5 L3,15.5 L3,28 Z" fill="#d9272e"/>
  <path d="M7,11 L3,13 L3,15 L7,13 L7,11 Z" fill="#d9272e"/>
</svg>