<svg xmlns="http://www.w3.org/2000/svg" width="32" height="32" viewBox="0 0 200 200">
  <rect width="200" height="200" fill="white"/>
  <path d="M57 110C53 110 50 107 50 103L50 90C50 87 53 83 57 83C61 83 64 87 64 90L64 103C64 107 61 110 57 110Z" fill="#d9272e"/>
  <path d="M79 55C79 61 74 66 68 66C62 66 57 61 57 55C57 49 62 44 68 44C74 44 79 49 79 55Z" fill="#d9272e"/>
  <path d="M123 187L26 187C24 187 22 186 21 184C19 183 19 181 19 179C19 176.5 21 174.5 23 173L33 164L33 125L29 121C27 119 27 115 29 113L40 103L35 97C34 95 34 93 36 91C37 89 39 88 41 88L54 91L54 89C54 86 56 84 58 84L95 84C97 84 99 85 100 87C101 89 100 91 99 93L80 114L75 114L75 141L90 153C91 154 92 156 92 158L92 179C92 181 91 183 89 184C88 186 86 187 84 187L81 187" fill="#d9272e"/>
  <path d="M127 80L16 80L16 76L56 48L56 27C56 22 60 18 65 18L78 18C83 18 87 22 87 27L87 48L127 76L127 80Z" fill="#d9272e"/>
  <path d="M142 187L142 158C142 156 143 155 144 154L165 141L165 114L160 114L141 93C140 91 140 89 141 87C142 85 144 84 146 84L183 84C185 84 187 86 187 89L187 91L200 88C202 88 204 89 205 91C206 93 206 95 205 97L200 103L212 113C214 115 214 119 212 121L208 125L208 164L218 173C220 174.5 222 176.5 222 179C222 181 221 183 220 184C218 186 216 187 214 187L117 187" fill="#d9272e"/>
</svg>